<svg width="49" height="48" viewBox="0 0 49 48" fill="none" xmlns="http://www.w3.org/2000/svg">
<path fill-rule="evenodd" clip-rule="evenodd" d="M24.9126 10.1673C26.5082 8.08293 29.0217 6.73749 31.8464 6.73749C34.6726 6.73749 37.1846 8.08293 38.7817 10.1673H40.5737C41.7314 10.1673 42.8413 10.6269 43.6602 11.4459C44.4777 12.2633 44.9373 13.3731 44.9373 14.5309C44.9373 19.568 44.9373 29.8575 44.9373 34.8946C44.9373 36.0524 44.4777 37.1622 43.6602 37.9797C42.8413 38.7986 41.7314 39.2582 40.5737 39.2582C33.5293 39.2582 15.618 39.2582 8.5736 39.2582C7.41724 39.2582 6.30741 38.7986 5.48851 37.9797C4.6696 37.1622 4.20996 36.0524 4.20996 34.8946C4.20996 29.8575 4.20996 19.568 4.20996 14.5309C4.20996 13.3731 4.6696 12.2633 5.48851 11.4459C6.30741 10.6269 7.41724 10.1673 8.5736 10.1673H24.9126ZM34.7555 23.6946C33.8464 24.0175 32.866 24.192 31.8464 24.192C30.8267 24.192 29.8478 24.0175 28.9373 23.6946V29.4793L31.3867 28.6633C31.6849 28.5644 32.0078 28.5644 32.3075 28.6633L34.7555 29.4793V23.6946ZM10.0282 29.0764H21.6646C22.4675 29.0764 23.1191 28.4248 23.1191 27.6218C23.1191 26.8189 22.4675 26.1673 21.6646 26.1673H10.0282C9.22524 26.1673 8.5736 26.8189 8.5736 27.6218C8.5736 28.4248 9.22524 29.0764 10.0282 29.0764ZM10.0282 23.2582H20.21C21.0129 23.2582 21.6646 22.6066 21.6646 21.8037C21.6646 21.0008 21.0129 20.3491 20.21 20.3491H10.0282C9.22524 20.3491 8.5736 21.0008 8.5736 21.8037C8.5736 22.6066 9.22524 23.2582 10.0282 23.2582ZM31.8464 9.64658C35.058 9.64658 37.6646 12.2531 37.6646 15.4648C37.6646 18.6764 35.058 21.2829 31.8464 21.2829C28.6362 21.2829 26.0282 18.6764 26.0282 15.4648C26.0282 12.2531 28.6362 9.64658 31.8464 9.64658Z" fill="url(#paint0_linear_1_8943)"/>
<defs>
<linearGradient id="paint0_linear_1_8943" x1="24.5736" y1="6.73749" x2="24.5736" y2="39.2582" gradientUnits="userSpaceOnUse">
<stop stop-color="white"/>
<stop offset="1" stop-color="#999999"/>
</linearGradient>
</defs>
</svg>
