<svg width="49" height="48" viewBox="0 0 49 48" fill="none" xmlns="http://www.w3.org/2000/svg">
<path d="M32.5596 46.0001H16.5596C15.6317 45.9991 14.742 45.63 14.0859 44.9738C13.4297 44.3177 13.0606 43.4281 13.0596 42.5001V30.5001C13.0606 29.5722 13.4297 28.6826 14.0859 28.0264C14.742 27.3703 15.6317 27.0012 16.5596 27.0001H32.5596C33.4875 27.0012 34.3771 27.3703 35.0333 28.0264C35.6894 28.6826 36.0585 29.5722 36.0596 30.5001V42.5001C36.0585 43.4281 35.6894 44.3177 35.0333 44.9738C34.3771 45.63 33.4875 45.9991 32.5596 46.0001ZM16.5596 30.0001C16.427 30.0001 16.2998 30.0528 16.206 30.1466C16.1123 30.2403 16.0596 30.3675 16.0596 30.5001V42.5001C16.0596 42.6327 16.1123 42.7599 16.206 42.8537C16.2998 42.9474 16.427 43.0001 16.5596 43.0001H32.5596C32.6922 43.0001 32.8194 42.9474 32.9131 42.8537C33.0069 42.7599 33.0596 42.6327 33.0596 42.5001V30.5001C33.0596 30.3675 33.0069 30.2403 32.9131 30.1466C32.8194 30.0528 32.6922 30.0001 32.5596 30.0001H16.5596Z" fill="url(#paint0_linear_1_8912)"/>
<path d="M28.5596 27.0001H20.5596C20.1618 27.0001 19.7803 27.1582 19.499 27.4395C19.2177 27.7208 19.0596 28.1023 19.0596 28.5001V36.5001C19.0596 36.7557 19.125 37.0071 19.2494 37.2304C19.3738 37.4536 19.5533 37.6414 19.7707 37.7758C19.988 37.9103 20.2362 37.9869 20.4915 37.9985C20.7469 38.0101 21.0009 37.9563 21.2296 37.8421L24.5596 36.1761L27.8896 37.8421C28.0977 37.9461 28.3271 38.0002 28.5596 38.0001C28.8385 37.9993 29.1118 37.9219 29.3496 37.7761C29.5666 37.6412 29.7457 37.4533 29.8699 37.2301C29.9941 37.0068 30.0594 36.7556 30.0596 36.5001V28.5001C30.0596 28.1023 29.9016 27.7208 29.6203 27.4395C29.339 27.1582 28.9574 27.0001 28.5596 27.0001ZM24.5596 3.00012C20.6267 3.00436 16.8561 4.56858 14.0751 7.34958C11.2941 10.1306 9.72984 13.9012 9.72561 17.8341C9.72439 18.5707 9.78056 19.3063 9.8936 20.0341C9.94657 20.3814 10.1201 20.699 10.3837 20.9312C10.6474 21.1635 10.9844 21.2955 11.3356 21.3041C11.6894 21.3185 12.0365 21.2052 12.3137 20.9849C12.5909 20.7646 12.7797 20.452 12.8456 20.1041C13.2276 18.2741 16.1736 18.0001 17.8936 18.0001C19.2055 18.1669 20.4248 18.7648 21.3599 19.6999C22.2949 20.635 22.8929 21.8543 23.0596 23.1661C23.0596 23.5639 23.2177 23.9455 23.499 24.2268C23.7803 24.5081 24.1618 24.6661 24.5596 24.6661C24.9574 24.6661 25.339 24.5081 25.6203 24.2268C25.9016 23.9455 26.0596 23.5639 26.0596 23.1661C25.98 22.5246 26.0365 21.8735 26.2254 21.2553C26.4143 20.6371 26.7314 20.0657 27.156 19.5782C27.5806 19.0908 28.1032 18.6984 28.6896 18.4264C29.2761 18.1545 29.9133 18.0093 30.5596 18.0001C31.7976 18.0001 35.8656 18.1521 36.2736 20.1061C36.3448 20.4508 36.5349 20.7595 36.8107 20.9782C37.0865 21.1969 37.4304 21.3116 37.7823 21.3023C38.1341 21.293 38.4715 21.1603 38.7353 20.9273C38.9992 20.6944 39.1728 20.3761 39.2256 20.0281C39.3387 19.3003 39.3948 18.5647 39.3936 17.8281C39.3878 13.8962 37.8229 10.1272 35.0421 7.34745C32.2612 4.56775 28.4915 3.00435 24.5596 3.00012Z" fill="url(#paint1_linear_1_8912)"/>
<path d="M24.5596 29.3341C24.1618 29.3341 23.7802 29.1761 23.4989 28.8948C23.2176 28.6135 23.0596 28.2319 23.0596 27.8341V21.5001C23.0596 21.1023 23.2176 20.7208 23.4989 20.4395C23.7802 20.1582 24.1618 20.0001 24.5596 20.0001C24.9574 20.0001 25.3389 20.1582 25.6203 20.4395C25.9016 20.7208 26.0596 21.1023 26.0596 21.5001V27.8341C26.0596 28.2319 25.9016 28.6135 25.6203 28.8948C25.3389 29.1761 24.9574 29.3341 24.5596 29.3341Z" fill="url(#paint2_linear_1_8912)"/>
<path d="M26.8953 29.3338C26.5808 29.3344 26.2741 29.2361 26.0185 29.0528C25.763 28.8696 25.5715 28.6106 25.4711 28.3126C25.3707 28.0146 25.3665 27.6925 25.4592 27.392C25.5518 27.0915 25.7366 26.8276 25.9873 26.6378L36.9873 18.3038C37.1449 18.1849 37.3244 18.0981 37.5155 18.0485C37.7066 17.9988 37.9056 17.9874 38.1012 18.0147C38.2968 18.042 38.485 18.1075 38.6553 18.2076C38.8255 18.3076 38.9743 18.4402 39.0933 18.5978C39.2123 18.7554 39.2991 18.9349 39.3487 19.126C39.3983 19.3171 39.4098 19.5162 39.3825 19.7117C39.3552 19.9073 39.2896 20.0955 39.1896 20.2658C39.0895 20.436 38.9569 20.5849 38.7993 20.7038L27.7993 29.0358C27.5385 29.2311 27.2211 29.3357 26.8953 29.3338ZM22.2233 29.3338C21.8966 29.3334 21.5791 29.2259 21.3193 29.0278L10.3193 20.6998C10.001 20.4595 9.79126 20.1027 9.73613 19.7077C9.68099 19.3128 9.78501 18.9121 10.0253 18.5938C10.2656 18.2756 10.6224 18.0658 11.0174 18.0107C11.4124 17.9555 11.8131 18.0595 12.1313 18.2998L23.1313 26.6338C23.3821 26.8236 23.5668 27.0875 23.6595 27.388C23.7521 27.6885 23.7479 28.0106 23.6475 28.3086C23.5472 28.6066 23.3557 28.8656 23.1001 29.0488C22.8445 29.2321 22.5378 29.3304 22.2233 29.3298V29.3338Z" fill="url(#paint3_linear_1_8912)"/>
<defs>
<linearGradient id="paint0_linear_1_8912" x1="24.5596" y1="27.0001" x2="24.5596" y2="46.0001" gradientUnits="userSpaceOnUse">
<stop stop-color="white"/>
<stop offset="1" stop-color="#999999"/>
</linearGradient>
<linearGradient id="paint1_linear_1_8912" x1="24.5596" y1="3.00012" x2="24.5596" y2="38.0001" gradientUnits="userSpaceOnUse">
<stop stop-color="white"/>
<stop offset="1" stop-color="#999999"/>
</linearGradient>
<linearGradient id="paint2_linear_1_8912" x1="24.5596" y1="20.0001" x2="24.5596" y2="29.3341" gradientUnits="userSpaceOnUse">
<stop stop-color="white"/>
<stop offset="1" stop-color="#999999"/>
</linearGradient>
<linearGradient id="paint3_linear_1_8912" x1="24.5593" y1="17.9962" x2="24.5593" y2="29.3338" gradientUnits="userSpaceOnUse">
<stop stop-color="white"/>
<stop offset="1" stop-color="#999999"/>
</linearGradient>
</defs>
</svg>
