<svg width="49" height="48" viewBox="0 0 49 48" fill="none" xmlns="http://www.w3.org/2000/svg">
<path d="M45.1218 19.8C44.9328 19.6598 44.714 19.5651 44.4824 19.5235C44.2508 19.4819 44.0127 19.4944 43.7868 19.56L30.7218 23.49V21C30.7218 20.7671 30.6677 20.5374 30.5635 20.3291C30.4594 20.1208 30.3081 19.9397 30.1218 19.8C29.9328 19.6598 29.714 19.5651 29.4824 19.5235C29.2508 19.4819 29.0127 19.4944 28.7868 19.56L14.6268 23.805L14.2218 16.41C14.1994 16.0278 14.0315 15.6686 13.7525 15.4064C13.4735 15.1441 13.1046 14.9987 12.7218 15H6.72173C6.33884 14.9987 5.97 15.1441 5.69101 15.4064C5.41202 15.6686 5.24409 16.0278 5.22173 16.41L3.72173 43.41C3.71062 43.6151 3.74073 43.8203 3.8103 44.0135C3.87986 44.2068 3.98746 44.3841 4.12673 44.535C4.26863 44.6821 4.43874 44.7991 4.62688 44.879C4.81502 44.9589 5.01733 45.0001 5.22173 45H44.2218C44.6192 44.9988 45.0001 44.8404 45.2811 44.5594C45.5622 44.2783 45.7206 43.8975 45.7218 43.5V21C45.7218 20.7671 45.6677 20.5374 45.5635 20.3291C45.4594 20.1208 45.3081 19.9397 45.1218 19.8ZM27.7218 42H15.6468L14.8068 26.895L27.7218 23.01V42ZM42.7218 42H30.7218V26.61L42.7218 23.01V42Z" fill="url(#paint0_linear_1_8861)"/>
<path d="M24.7217 30H18.7217V33H24.7217V30Z" fill="url(#paint1_linear_1_8861)"/>
<path d="M24.7217 36H18.7217V39H24.7217V36Z" fill="url(#paint2_linear_1_8861)"/>
<path d="M39.7217 30H33.7217V33H39.7217V30Z" fill="url(#paint3_linear_1_8861)"/>
<path d="M39.7217 36H33.7217V39H39.7217V36Z" fill="url(#paint4_linear_1_8861)"/>
<path d="M8.22168 12C8.22259 11.2046 8.53896 10.4421 9.10137 9.87969C9.66378 9.31728 10.4263 9.00091 11.2217 9H12.0562C11.5158 9.90784 11.2277 10.9435 11.2217 12V13.5H14.2217V12C14.2226 11.2046 14.539 10.4421 15.1014 9.87969C15.6638 9.31728 16.4263 9.00091 17.2217 9H29.2217C30.8125 8.99829 32.3376 8.3656 33.4625 7.24075C34.5873 6.11591 35.22 4.59077 35.2217 3H32.2217C32.2208 3.79537 31.9044 4.5579 31.342 5.12031C30.7796 5.68272 30.0171 5.99909 29.2217 6H28.3873C28.9276 5.09216 29.2157 4.05647 29.2217 3H26.2217C26.2208 3.79537 25.9044 4.5579 25.342 5.12031C24.7796 5.68272 24.0171 5.99909 23.2217 6H11.2217C9.63091 6.00171 8.10577 6.6344 6.98093 7.75925C5.85608 8.88409 5.22339 10.4092 5.22168 12V13.5H8.22168V12Z" fill="url(#paint5_linear_1_8861)"/>
<defs>
<linearGradient id="paint0_linear_1_8861" x1="24.7206" y1="15" x2="24.7206" y2="45" gradientUnits="userSpaceOnUse">
<stop stop-color="white"/>
<stop offset="1" stop-color="#999999"/>
</linearGradient>
<linearGradient id="paint1_linear_1_8861" x1="21.7217" y1="30" x2="21.7217" y2="33" gradientUnits="userSpaceOnUse">
<stop stop-color="white"/>
<stop offset="1" stop-color="#999999"/>
</linearGradient>
<linearGradient id="paint2_linear_1_8861" x1="21.7217" y1="36" x2="21.7217" y2="39" gradientUnits="userSpaceOnUse">
<stop stop-color="white"/>
<stop offset="1" stop-color="#999999"/>
</linearGradient>
<linearGradient id="paint3_linear_1_8861" x1="36.7217" y1="30" x2="36.7217" y2="33" gradientUnits="userSpaceOnUse">
<stop stop-color="white"/>
<stop offset="1" stop-color="#999999"/>
</linearGradient>
<linearGradient id="paint4_linear_1_8861" x1="36.7217" y1="36" x2="36.7217" y2="39" gradientUnits="userSpaceOnUse">
<stop stop-color="white"/>
<stop offset="1" stop-color="#999999"/>
</linearGradient>
<linearGradient id="paint5_linear_1_8861" x1="20.2217" y1="3" x2="20.2217" y2="13.5" gradientUnits="userSpaceOnUse">
<stop stop-color="white"/>
<stop offset="1" stop-color="#999999"/>
</linearGradient>
</defs>
</svg>
