<svg width="49" height="48" viewBox="0 0 49 48" fill="none" xmlns="http://www.w3.org/2000/svg">
<path d="M38.7617 9H9.51172C8.21879 9 6.97881 9.52678 6.06457 10.4645C5.15033 11.4021 4.63672 12.6739 4.63672 14V15.6667H43.6367V14C43.6367 12.6739 43.1231 11.4021 42.2088 10.4645C41.2946 9.52678 40.0546 9 38.7617 9ZM4.63672 34C4.63672 35.3261 5.15033 36.5979 6.06457 37.5355C6.97881 38.4732 8.21879 39 9.51172 39H38.7617C40.0546 39 41.2946 38.4732 42.2088 37.5355C43.1231 36.5979 43.6367 35.3261 43.6367 34V19H4.63672V34ZM12.7617 25.6667H19.2617C19.6927 25.6667 20.106 25.8423 20.4107 26.1548C20.7155 26.4674 20.8867 26.8913 20.8867 27.3333C20.8867 27.7754 20.7155 28.1993 20.4107 28.5118C20.106 28.8244 19.6927 29 19.2617 29H12.7617C12.3307 29 11.9174 28.8244 11.6127 28.5118C11.3079 28.1993 11.1367 27.7754 11.1367 27.3333C11.1367 26.8913 11.3079 26.4674 11.6127 26.1548C11.9174 25.8423 12.3307 25.6667 12.7617 25.6667Z" fill="url(#paint0_linear_1_8898)"/>
<defs>
<linearGradient id="paint0_linear_1_8898" x1="24.1367" y1="9" x2="24.1367" y2="39" gradientUnits="userSpaceOnUse">
<stop stop-color="white"/>
<stop offset="1" stop-color="#999999"/>
</linearGradient>
</defs>
</svg>
