<svg width="49" height="48" viewBox="0 0 49 48" fill="none" xmlns="http://www.w3.org/2000/svg">
<path d="M37.6876 3.83257H32.4639C32.5902 4.27995 32.6521 4.74308 32.6475 5.20794V13.4601C32.6454 14.4861 32.3813 15.4945 31.8803 16.3899C31.3794 17.2852 30.6581 18.0378 29.7848 18.5763L32.5355 21.7123C32.6625 21.8585 32.8205 21.9746 32.998 22.0521C33.1754 22.1296 33.3679 22.1665 33.5615 22.1603H33.6152C33.8186 22.149 34.0172 22.0939 34.1973 21.9988C34.3775 21.9037 34.535 21.7708 34.6591 21.6093L36.9887 18.4733H37.6876C38.5368 18.4686 39.35 18.1291 39.9505 17.5286C40.5511 16.928 40.8905 16.1149 40.8953 15.2656V7.04027C40.8905 6.19099 40.5511 5.37783 39.9505 4.77728C39.35 4.17674 38.5368 3.83728 37.6876 3.83257ZM18.8939 20.3325H18.8446C18.6403 20.3247 18.4402 20.2717 18.2589 20.1772C18.0776 20.0826 17.9196 19.949 17.7963 19.7859L15.4577 16.6499H11.1031C10.2558 16.6488 9.4433 16.3129 8.84251 15.7154C8.24172 15.118 7.9013 14.3074 7.89539 13.4601V5.20794C7.89658 4.35757 8.23491 3.54237 8.83621 2.94107C9.43752 2.33976 10.2527 2.00143 11.1031 2.00024H26.6891C27.5395 2.00143 28.3547 2.33976 28.956 2.94107C29.5573 3.54237 29.8956 4.35757 29.8968 5.20794V13.4601C29.8956 14.3105 29.5573 15.1257 28.956 15.727C28.3547 16.3283 27.5395 16.6666 26.6891 16.6678H22.7288L19.9288 19.8666C19.7979 20.0104 19.6379 20.1247 19.4595 20.2019C19.2811 20.2791 19.0883 20.3176 18.8939 20.3146V20.3325Z" fill="url(#paint0_linear_1_8883)"/>
<path d="M33.5618 33.1673C35.5857 33.1673 37.2264 31.5265 37.2264 29.5026C37.2264 27.4787 35.5857 25.838 33.5618 25.838C31.5379 25.838 29.8971 27.4787 29.8971 29.5026C29.8971 31.5265 31.5379 33.1673 33.5618 33.1673Z" fill="url(#paint1_linear_1_8883)"/>
<path d="M40.895 40.0446V40.9406C40.8938 41.3054 40.7486 41.655 40.4911 41.9134C40.2335 42.1718 39.8844 42.3181 39.5196 42.3204H31.7288V41.8724C31.729 40.6823 31.4527 39.5084 30.9217 38.4433C30.3907 37.3781 29.6195 36.4509 28.669 35.7348C29.4528 35.2558 30.3533 35.0016 31.2719 35.0001H35.8549C36.5172 35.0001 37.1729 35.1306 37.7847 35.3841C38.3965 35.6377 38.9523 36.0093 39.4204 36.4778C39.8884 36.9463 40.2596 37.5025 40.5126 38.1145C40.7656 38.7265 40.8956 39.3823 40.895 40.0446Z" fill="url(#paint2_linear_1_8883)"/>
<path d="M18.8942 34.0864C21.9326 34.0864 24.3957 31.6233 24.3957 28.5849C24.3957 25.5465 21.9326 23.0834 18.8942 23.0834C15.8558 23.0834 13.3927 25.5465 13.3927 28.5849C13.3927 31.6233 15.8558 34.0864 18.8942 34.0864Z" fill="url(#paint3_linear_1_8883)"/>
<path d="M23.9385 36.837H13.854C13.1908 36.8346 12.5336 36.9631 11.9201 37.215C11.3066 37.4669 10.7487 37.8373 10.2785 38.305C9.80829 38.7727 9.43493 39.3285 9.17977 39.9407C8.92461 40.5529 8.79267 41.2093 8.7915 41.8726V44.6233C8.7915 44.9881 8.9364 45.3379 9.19434 45.5958C9.45227 45.8537 9.8021 45.9986 10.1669 45.9986H27.6076C27.9724 45.9986 28.3222 45.8537 28.5802 45.5958C28.8381 45.3379 28.983 44.9881 28.983 44.6233V41.8726C28.9806 40.5362 28.4481 39.2554 27.5023 38.3113C26.5566 37.3672 25.2748 36.837 23.9385 36.837Z" fill="url(#paint4_linear_1_8883)"/>
<defs>
<linearGradient id="paint0_linear_1_8883" x1="24.3953" y1="2.00024" x2="24.3953" y2="22.161" gradientUnits="userSpaceOnUse">
<stop stop-color="white"/>
<stop offset="1" stop-color="#999999"/>
</linearGradient>
<linearGradient id="paint1_linear_1_8883" x1="33.5617" y1="25.838" x2="33.5617" y2="33.1673" gradientUnits="userSpaceOnUse">
<stop stop-color="white"/>
<stop offset="1" stop-color="#999999"/>
</linearGradient>
<linearGradient id="paint2_linear_1_8883" x1="34.782" y1="35.0001" x2="34.782" y2="42.3204" gradientUnits="userSpaceOnUse">
<stop stop-color="white"/>
<stop offset="1" stop-color="#999999"/>
</linearGradient>
<linearGradient id="paint3_linear_1_8883" x1="18.8942" y1="23.0834" x2="18.8942" y2="34.0864" gradientUnits="userSpaceOnUse">
<stop stop-color="white"/>
<stop offset="1" stop-color="#999999"/>
</linearGradient>
<linearGradient id="paint4_linear_1_8883" x1="18.8872" y1="36.837" x2="18.8872" y2="45.9986" gradientUnits="userSpaceOnUse">
<stop stop-color="white"/>
<stop offset="1" stop-color="#999999"/>
</linearGradient>
</defs>
</svg>
