<svg width="115" height="72" viewBox="0 0 115 72" fill="none" xmlns="http://www.w3.org/2000/svg">
<path d="M4.09864 68.8813C4.09864 68.2587 3.56229 67.7222 2.34618 67.7222H0.209376C0.0889126 67.7222 0 67.8111 0 67.9316V71.6728C0 71.7905 0.0889126 71.8794 0.209376 71.8794H2.58424C3.82903 71.8794 4.39406 71.3171 4.39406 70.6629C4.39406 69.8912 3.50493 69.7133 3.50493 69.7133V69.653C3.50493 69.653 4.09864 69.4752 4.09864 68.8813ZM2.58424 70.2182C2.87966 70.2182 3.02881 70.3646 3.02881 70.574C3.02881 70.7806 2.87966 70.9298 2.58424 70.9298H1.30789V70.2182H2.58424ZM2.34618 68.6718C2.61865 68.6718 2.73051 68.7923 2.73051 68.9702C2.73051 69.1481 2.61292 69.2657 2.34618 69.2657H1.30789V68.6718H2.34618Z" fill="#20B2FF"/>
<path d="M8.27192 71.6728C8.31782 71.7905 8.4182 71.8794 8.53866 71.8794H9.54827C9.66586 71.8794 9.74904 71.7905 9.69454 71.6728L8.03386 67.9259C7.97937 67.8054 7.88472 67.7222 7.76712 67.7222H6.54814C6.43055 67.7222 6.3359 67.8111 6.2814 67.9316L4.62072 71.6728C4.56623 71.7905 4.6494 71.8794 4.767 71.8794H5.71923C5.83683 71.8794 5.93722 71.7905 5.98598 71.6728L6.19249 71.1392H8.06255L8.27192 71.6728ZM7.11317 68.9702H7.17341L7.64666 70.158H6.60837L7.11317 68.9702Z" fill="#20B2FF"/>
<path d="M13.8994 71.079C13.8994 70.9585 13.8104 70.8695 13.6928 70.8695H11.4643V67.9316C11.4643 67.8111 11.3754 67.7222 11.2578 67.7222H10.3658C10.2482 67.7222 10.1592 67.8111 10.1592 67.9316V71.6728C10.1592 71.7905 10.2482 71.8794 10.3658 71.8794H13.6928C13.8104 71.8794 13.8994 71.7905 13.8994 71.6728V71.079Z" fill="#20B2FF"/>
<path d="M17.6997 67.9316C17.6997 67.8111 17.6108 67.7222 17.4903 67.7222H13.6928C13.5724 67.7222 13.4835 67.8111 13.4835 67.9316V68.5255C13.4835 68.6431 13.5724 68.7321 13.6928 68.7321H14.9376V71.6728C14.9376 71.7905 15.0265 71.8794 15.147 71.8794H16.0361C16.1566 71.8794 16.2455 71.7905 16.2455 71.6728V68.7321H17.4903C17.6108 68.7321 17.6997 68.6431 17.6997 68.5255V67.9316Z" fill="#20B2FF"/>
<path d="M20.8459 67.9316C20.8459 67.8111 20.7569 67.7222 20.6365 67.7222H18.2043C18.0838 67.7222 17.9949 67.8111 17.9949 67.9316V68.5255C17.9949 68.6431 18.0838 68.7321 18.2043 68.7321H18.7664V70.8695H18.2043C18.0838 70.8695 17.9949 70.9585 17.9949 71.079V71.6728C17.9949 71.7905 18.0838 71.8794 18.2043 71.8794H20.6365C20.7569 71.8794 20.8459 71.7905 20.8459 71.6728V71.079C20.8459 70.9585 20.7569 70.8695 20.6365 70.8695H20.0743V68.7321H20.6365C20.7569 68.7321 20.8459 68.6431 20.8459 68.5255V67.9316Z" fill="#20B2FF"/>
<path d="M24.526 69.6817C24.526 69.6817 24.9189 69.5641 25.2402 68.9702L25.8023 67.9316C25.8511 67.8427 25.8023 67.7222 25.6532 67.7222H24.7354C24.4973 67.7222 24.4141 67.8111 24.3482 67.9316L23.7831 68.9702C23.6885 69.1481 23.5766 69.2657 23.2497 69.2657H22.8051V67.9316C22.8051 67.8111 22.7162 67.7222 22.5957 67.7222H21.7066C21.589 67.7222 21.4972 67.8111 21.4972 67.9316V71.6728C21.4972 71.7905 21.589 71.8794 21.7066 71.8794H22.5957C22.7162 71.8794 22.8051 71.7905 22.8051 71.6728V70.2756H23.3386C23.6655 70.2756 23.7774 70.3961 23.8721 70.574L24.4658 71.6728C24.5317 71.7905 24.6149 71.8794 24.853 71.8794H25.7737C25.9228 71.8794 25.9687 71.7618 25.9228 71.6728L25.3291 70.574C24.9419 69.8596 24.526 69.742 24.526 69.742V69.6817Z" fill="#20B2FF"/>
<path d="M29.6972 71.6728C29.746 71.7905 29.8464 71.8794 29.964 71.8794H30.9736C31.0912 71.8794 31.1744 71.7905 31.1227 71.6728L29.4592 67.9259C29.4076 67.8054 29.3129 67.7222 29.1924 67.7222H27.9763C27.8559 67.7222 27.7612 67.8111 27.7096 67.9316L26.046 71.6728C25.9916 71.7905 26.0747 71.8794 26.1952 71.8794H27.1446C27.2622 71.8794 27.3654 71.7905 27.4113 71.6728L27.6207 71.1392H29.4907L29.6972 71.6728ZM28.5385 68.9702H28.5987L29.0749 70.158H28.0337L28.5385 68.9702Z" fill="#20B2FF"/>
<path d="M37.5217 68.8813C37.5217 68.2587 36.9882 67.7222 35.7721 67.7222H33.6324C33.5148 67.7222 33.4259 67.8111 33.4259 67.9316V71.6728C33.4259 71.7905 33.5148 71.8794 33.6324 71.8794H36.0073C37.2549 71.8794 37.82 71.3171 37.82 70.6629C37.82 69.8912 36.928 69.7133 36.928 69.7133V69.653C36.928 69.653 37.5217 69.4752 37.5217 68.8813ZM36.0073 70.2182C36.3056 70.2182 36.4547 70.3646 36.4547 70.574C36.4547 70.7806 36.3056 70.9298 36.0073 70.9298H34.7309V70.2182H36.0073ZM35.7721 68.6718C36.0446 68.6718 36.1564 68.7923 36.1564 68.9702C36.1564 69.1481 36.0388 69.2657 35.7721 69.2657H34.7309V68.6718H35.7721Z" fill="#20B2FF"/>
<path d="M40.6395 71.9999C42.0937 71.9999 42.8366 71.2855 42.8366 70.1523V67.9316C42.8366 67.8111 42.7477 67.7222 42.6272 67.7222H41.7381C41.6176 67.7222 41.5287 67.8111 41.5287 67.9316V70.158C41.5287 70.6916 41.2046 71.0187 40.6395 71.0187C40.0745 71.0187 39.7475 70.6916 39.7475 70.158V67.9316C39.7475 67.8111 39.6586 67.7222 39.541 67.7222H38.6519C38.5314 67.7222 38.4425 67.8111 38.4425 67.9316V70.158C38.4425 71.2855 39.1538 71.9999 40.6395 71.9999Z" fill="#20B2FF"/>
<path d="M44.9132 68.9415C44.9132 68.7636 45.091 68.5828 45.6274 68.5828C46.072 68.5828 46.2555 68.7636 46.31 68.8525C46.3932 68.9988 46.4878 69.0878 46.6657 69.0878H47.4085C47.5548 69.0878 47.6437 68.9988 47.6437 68.8525C47.6437 68.2586 46.9926 67.6045 45.6274 67.6045C44.1732 67.6045 43.548 68.2271 43.548 68.9415C43.548 70.6026 46.4276 70.0403 46.4276 70.6342C46.4276 70.8121 46.2211 71.0187 45.6274 71.0187C45.0337 71.0187 44.8558 70.8408 44.7669 70.6916C44.6838 70.551 44.5862 70.4535 44.4084 70.4535H43.6684C43.5193 70.4535 43.4304 70.5453 43.4304 70.6916C43.4304 71.3457 44.0843 71.9999 45.6274 71.9999C47.1418 71.9999 47.7929 71.3457 47.7929 70.6342C47.7929 68.9702 44.9132 69.5354 44.9132 68.9415Z" fill="#20B2FF"/>
<path d="M51.0279 67.9316C51.0279 67.8111 50.9389 67.7222 50.8213 67.7222H48.3863C48.2687 67.7222 48.1797 67.8111 48.1797 67.9316V68.5255C48.1797 68.6431 48.2687 68.7321 48.3863 68.7321H48.9513V70.8695H48.3863C48.2687 70.8695 48.1797 70.9585 48.1797 71.079V71.6728C48.1797 71.7905 48.2687 71.8794 48.3863 71.8794H50.8213C50.9389 71.8794 51.0279 71.7905 51.0279 71.6728V71.079C51.0279 70.9585 50.9389 70.8695 50.8213 70.8695H50.2563V68.7321H50.8213C50.9389 68.7321 51.0279 68.6431 51.0279 68.5255V67.9316Z" fill="#20B2FF"/>
<path d="M54.7106 70.0977L53.2249 67.9316C53.1675 67.8427 53.0471 67.7222 52.8979 67.7222H51.8883C51.7707 67.7222 51.6818 67.8111 51.6818 67.9316V71.6728C51.6818 71.7905 51.7707 71.8794 51.8883 71.8794H52.7803C52.8979 71.8794 52.9868 71.7905 52.9868 71.6728V69.5038H53.0471L54.5328 71.6728C54.5902 71.7618 54.7106 71.8794 54.8569 71.8794H55.8665C55.987 71.8794 56.0759 71.7905 56.0759 71.6728V67.9316C56.0759 67.8111 55.987 67.7222 55.8665 67.7222H54.9774C54.8569 67.7222 54.768 67.8111 54.768 67.9316V70.0977H54.7106Z" fill="#20B2FF"/>
<path d="M61.0038 67.9316C61.0038 67.8111 60.9149 67.7222 60.7944 67.7222H57.1748C57.0543 67.7222 56.9654 67.8111 56.9654 67.9316V71.6728C56.9654 71.7905 57.0543 71.8794 57.1748 71.8794H60.7944C60.9149 71.8794 61.0038 71.7905 61.0038 71.6728V71.079C61.0038 70.9585 60.9149 70.8695 60.7944 70.8695H58.2733V70.2756H60.1433C60.2609 70.2756 60.3499 70.1867 60.3499 70.0691V69.4752C60.3499 69.3575 60.2609 69.2657 60.1433 69.2657H58.2733V68.7321H60.7944C60.9149 68.7321 61.0038 68.6431 61.0038 68.5255V67.9316Z" fill="#20B2FF"/>
<path d="M62.8736 68.9415C62.8736 68.7636 63.0514 68.5828 63.5849 68.5828C64.0323 68.5828 64.2159 68.7636 64.2675 68.8525C64.3507 68.9988 64.4454 69.0878 64.6232 69.0878H65.3661C65.5152 69.0878 65.6041 68.9988 65.6041 68.8525C65.6041 68.2586 64.9502 67.6045 63.5849 67.6045C62.1307 67.6045 61.5083 68.2271 61.5083 68.9415C61.5083 70.6026 64.388 70.0403 64.388 70.6342C64.388 70.8121 64.1786 71.0187 63.5849 71.0187C62.9912 71.0187 62.8134 70.8408 62.7245 70.6916C62.6413 70.551 62.5466 70.4535 62.3688 70.4535H61.6259C61.4768 70.4535 61.3879 70.5453 61.3879 70.6916C61.3879 71.3457 62.0418 71.9999 63.5849 71.9999C65.0993 71.9999 65.7533 71.3457 65.7533 70.6342C65.7533 68.9702 62.8736 69.5354 62.8736 68.9415Z" fill="#20B2FF"/>
<path d="M67.5917 68.9415C67.5917 68.7636 67.7724 68.5828 68.3059 68.5828C68.7505 68.5828 68.9341 68.7636 68.9885 68.8525C69.0717 68.9988 69.1664 69.0878 69.3442 69.0878H70.0871C70.2362 69.0878 70.3251 68.9988 70.3251 68.8525C70.3251 68.2586 69.6712 67.6045 68.3059 67.6045C66.8517 67.6045 66.2265 68.2271 66.2265 68.9415C66.2265 70.6026 69.1061 70.0403 69.1061 70.6342C69.1061 70.8121 68.8996 71.0187 68.3059 71.0187C67.7122 71.0187 67.5344 70.8408 67.4455 70.6916C67.3623 70.551 67.2676 70.4535 67.0898 70.4535H66.3469C66.1978 70.4535 66.1089 70.5453 66.1089 70.6916C66.1089 71.3457 66.7628 71.9999 68.3059 71.9999C69.8203 71.9999 70.4714 71.3457 70.4714 70.6342C70.4714 68.9702 67.5917 69.5354 67.5917 68.9415Z" fill="#20B2FF"/>
<path d="M74.1541 68.9415C74.1541 68.7636 74.3319 68.5828 74.8654 68.5828C75.31 68.5828 75.4964 68.7636 75.5481 68.8525C75.6312 68.9988 75.7259 69.0878 75.9037 69.0878H76.6466C76.7957 69.0878 76.8846 68.9988 76.8846 68.8525C76.8846 68.2586 76.2307 67.6045 74.8654 67.6045C73.4113 67.6045 72.7889 68.2271 72.7889 68.9415C72.7889 70.6026 75.6685 70.0403 75.6685 70.6342C75.6685 70.8121 75.4591 71.0187 74.8654 71.0187C74.2717 71.0187 74.0939 70.8408 74.005 70.6916C73.9218 70.551 73.8271 70.4535 73.6493 70.4535H72.9065C72.7573 70.4535 72.6684 70.5453 72.6684 70.6916C72.6684 71.3457 73.3223 71.9999 74.8654 71.9999C76.3798 71.9999 77.0338 71.3457 77.0338 70.6342C77.0338 68.9702 74.1541 69.5354 74.1541 68.9415Z" fill="#20B2FF"/>
<path d="M79.9136 71.0187C79.2597 71.0187 78.8438 70.6026 78.8438 69.8022C78.8438 68.9989 79.2597 68.5828 79.9136 68.5828C80.5647 68.5828 80.9806 68.9989 80.9806 69.8022C80.9806 70.6026 80.5647 71.0187 79.9136 71.0187ZM79.9136 67.6045C78.339 67.6045 77.4785 68.4652 77.4785 69.8022C77.4785 71.1392 78.339 71.9999 79.9136 71.9999C81.4854 71.9999 82.3458 71.1392 82.3458 69.8022C82.3458 68.4652 81.4854 67.6045 79.9136 67.6045Z" fill="#20B2FF"/>
<path d="M86.8001 71.079C86.8001 70.9585 86.7111 70.8695 86.5907 70.8695H84.365V67.9316C84.365 67.8111 84.276 67.7222 84.1585 67.7222H83.2664C83.1489 67.7222 83.0599 67.8111 83.0599 67.9316V71.6728C83.0599 71.7905 83.1489 71.8794 83.2664 71.8794H86.5907C86.7111 71.8794 86.8001 71.7905 86.8001 71.6728V71.079Z" fill="#20B2FF"/>
<path d="M89.5019 71.9999C90.9561 71.9999 91.6961 71.2855 91.6961 70.1523V67.9316C91.6961 67.8111 91.6072 67.7222 91.4896 67.7222H90.5976C90.48 67.7222 90.391 67.8111 90.391 67.9316V70.158C90.391 70.6916 90.0641 71.0187 89.5019 71.0187C88.9369 71.0187 88.6099 70.6916 88.6099 70.158V67.9316C88.6099 67.8111 88.521 67.7222 88.4034 67.7222H87.5114C87.3938 67.7222 87.3049 67.8111 87.3049 67.9316V70.158C87.3049 71.2855 88.0162 71.9999 89.5019 71.9999Z" fill="#20B2FF"/>
<path d="M96.417 67.9316C96.417 67.8111 96.3281 67.7222 96.2105 67.7222H92.4102C92.2897 67.7222 92.2008 67.8111 92.2008 67.9316V68.5255C92.2008 68.6431 92.2897 68.7321 92.4102 68.7321H93.655V71.6728C93.655 71.7905 93.7468 71.8794 93.8644 71.8794H94.7535C94.874 71.8794 94.9629 71.7905 94.9629 71.6728V68.7321H96.2105C96.3281 68.7321 96.417 68.6431 96.417 68.5255V67.9316Z" fill="#20B2FF"/>
<path d="M99.5635 67.9316C99.5635 67.8111 99.4746 67.7222 99.357 67.7222H96.9219C96.8043 67.7222 96.7125 67.8111 96.7125 67.9316V68.5255C96.7125 68.6431 96.8043 68.7321 96.9219 68.7321H97.4869V70.8695H96.9219C96.8043 70.8695 96.7125 70.9585 96.7125 71.079V71.6728C96.7125 71.7905 96.8043 71.8794 96.9219 71.8794H99.357C99.4746 71.8794 99.5635 71.7905 99.5635 71.6728V71.079C99.5635 70.9585 99.4746 70.8695 99.357 70.8695H98.792V68.7321H99.357C99.4746 68.7321 99.5635 68.6431 99.5635 68.5255V67.9316Z" fill="#20B2FF"/>
<path d="M102.472 71.0187C101.821 71.0187 101.405 70.6026 101.405 69.8022C101.405 68.9989 101.821 68.5828 102.472 68.5828C103.126 68.5828 103.542 68.9989 103.542 69.8022C103.542 70.6026 103.126 71.0187 102.472 71.0187ZM102.472 67.6045C100.9 67.6045 100.04 68.4652 100.04 69.8022C100.04 71.1392 100.9 71.9999 102.472 71.9999C104.047 71.9999 104.907 71.1392 104.907 69.8022C104.907 68.4652 104.047 67.6045 102.472 67.6045Z" fill="#20B2FF"/>
<path d="M108.647 70.0977L107.164 67.9316C107.104 67.8427 106.984 67.7222 106.837 67.7222H105.828C105.707 67.7222 105.618 67.8111 105.618 67.9316V71.6728C105.618 71.7905 105.707 71.8794 105.828 71.8794H106.717C106.837 71.8794 106.926 71.7905 106.926 71.6728V69.5038H106.984L108.469 71.6728C108.53 71.7618 108.647 71.8794 108.796 71.8794H109.806C109.924 71.8794 110.013 71.7905 110.013 71.6728V67.9316C110.013 67.8111 109.924 67.7222 109.806 67.7222H108.914C108.796 67.7222 108.708 67.8111 108.708 67.9316V70.0977H108.647Z" fill="#20B2FF"/>
<path d="M112.12 68.9415C112.12 68.7636 112.298 68.5828 112.832 68.5828C113.279 68.5828 113.463 68.7636 113.514 68.8525C113.598 68.9988 113.695 69.0878 113.873 69.0878H114.613C114.762 69.0878 114.851 68.9988 114.851 68.8525C114.851 68.2586 114.197 67.6045 112.832 67.6045C111.378 67.6045 110.755 68.2271 110.755 68.9415C110.755 70.6026 113.635 70.0403 113.635 70.6342C113.635 70.8121 113.426 71.0187 112.832 71.0187C112.238 71.0187 112.06 70.8408 111.971 70.6916C111.888 70.551 111.794 70.4535 111.616 70.4535H110.873C110.727 70.4535 110.635 70.5453 110.635 70.6916C110.635 71.3457 111.289 71.9999 112.832 71.9999C114.346 71.9999 115 71.3457 115 70.6342C115 68.9702 112.12 69.5354 112.12 68.9415Z" fill="#20B2FF"/>
<path d="M71.8476 38.3994C71.1433 40.9735 70.2355 43.3333 69.1484 45.4011C68.2594 47.094 67.2338 48.6047 66.0958 49.8796C72.0243 47.86 76.9699 43.7404 80.0546 38.4023L71.8476 38.3994Z" fill="#20B2FF"/>
<path d="M59.214 38.3994V51.0821C61.9265 50.4473 64.5373 48.0233 66.6208 44.0674C67.4937 42.4067 68.2515 40.4969 68.8728 38.397L59.214 38.3994Z" fill="#20B2FF"/>
<path d="M46.701 38.3993C47.3196 40.4966 48.0801 42.4091 48.953 44.0697C51.0337 48.0259 53.6471 50.4499 56.3598 51.0844L56.3572 38.3989L46.701 38.3993Z" fill="#20B2FF"/>
<path d="M35.519 38.3994C38.6038 43.7404 43.5496 47.8573 49.4778 49.8767C48.3425 48.6017 47.3169 47.091 46.4252 45.3982C45.3381 43.3304 44.4276 40.9706 43.7261 38.3965L35.519 38.3994Z" fill="#20B2FF"/>
<path d="M73.4757 26.97C73.3954 29.9726 73.0687 32.8493 72.5251 35.5413H81.4819C82.6011 32.8842 83.2866 29.9967 83.45 26.97H73.4757Z" fill="#20B2FF"/>
<path d="M59.214 26.97V35.5413H69.5979C70.1736 32.8842 70.5298 29.9967 70.6154 26.97H59.214Z" fill="#20B2FF"/>
<path d="M44.9551 26.97C45.0408 29.9967 45.3996 32.8842 45.9727 35.5413H56.3593V26.97H44.9551Z" fill="#20B2FF"/>
<path d="M32.1211 26.97C32.2871 29.9967 32.9699 32.8842 34.0892 35.5413H43.0459C42.5023 32.8493 42.173 29.9726 42.0953 26.97H32.1211Z" fill="#20B2FF"/>
<path d="M72.5251 15.5408C73.0687 18.2327 73.3981 21.1094 73.4757 24.1121H83.4504C83.2844 21.0853 82.6015 18.1979 81.4823 15.5408H72.5251Z" fill="#20B2FF"/>
<path d="M59.214 15.5408V24.1121H70.6159C70.5302 21.0853 70.1714 18.1979 69.5983 15.5408H59.214Z" fill="#20B2FF"/>
<path d="M45.973 15.5408C45.3973 18.1979 45.0411 21.0853 44.9554 24.1121H56.3601V15.5408H45.973Z" fill="#20B2FF"/>
<path d="M34.092 15.5408C32.9727 18.1979 32.2872 21.0853 32.1238 24.1121H42.0985C42.1788 21.1094 42.5055 18.2327 43.0491 15.5408H34.092Z" fill="#20B2FF"/>
<path d="M66.0958 1.20557C67.2311 2.48056 68.2567 3.99123 69.1484 5.68403C70.2355 7.75183 71.146 10.1116 71.8476 12.6857H80.055C76.9703 7.34473 72.0244 3.22784 66.0962 1.20845L66.0958 1.20557Z" fill="#20B2FF"/>
<path d="M49.4778 1.20552C43.5494 3.22512 38.6038 7.34468 35.519 12.6828H43.7265C44.4307 10.1087 45.3385 7.74897 46.4256 5.6811C47.3147 3.98824 48.3402 2.47756 49.4782 1.20264L49.4778 1.20552Z" fill="#20B2FF"/>
<path d="M59.2138 0.00278407V12.6855H68.8697C68.2512 10.5883 67.4907 8.67576 66.6177 7.01512C64.5399 3.05896 61.9265 0.637882 59.2138 0.00278407Z" fill="#20B2FF"/>
<path d="M56.3569 0C53.6444 0.63481 51.0336 3.05885 48.9501 7.01474C48.0772 8.67544 47.3194 10.5852 46.6981 12.6852H56.3595L56.3569 0Z" fill="#20B2FF"/>
</svg>
